<svg width="64" height="64" viewBox="0 0 64 64" fill="none" xmlns="http://www.w3.org/2000/svg">
<path d="M48.9324 51.2936H45.6348V51.904C45.6348 53.0671 46.5672 53.9999 47.7043 53.9999H51.0019V53.3895C51.0133 52.2264 50.0808 51.2936 48.9324 51.2936Z" fill="#006D9F"/>
<path d="M42.6667 51.2936H39.3691V51.904C39.3691 53.0671 40.3016 53.9999 41.4387 53.9999H44.7363V53.3895C44.7363 52.2264 43.8039 51.2936 42.6667 51.2936Z" fill="#E95178"/>
<path d="M36.3894 51.2936H33.0918V51.904C33.0918 53.0671 34.0242 53.9999 35.1613 53.9999H38.4589V53.3895C38.4589 52.2264 37.5379 51.2936 36.3894 51.2936Z" fill="#F2933F"/>
<path d="M35.0371 45.3862C35.0371 45.3862 37.9822 43.44 41.9962 44.0965C45.4303 44.6607 49.16 47.9543 54.0609 48.9331C54.311 49.0022 54.5612 49.0483 54.8227 49.0943C58.4728 49.7047 62.8962 48.15 62.6574 45.5359C61.9751 38.1888 43.2697 37.21 35.0371 45.3862Z" fill="url(#paint0_linear_2456_3311)"/>
<path fill-rule="evenodd" clip-rule="evenodd" d="M27.1009 32.3672C29.6612 34.6 31.8389 36.4992 36.516 38.1196C38.3354 38.753 42.8383 39.467 48.774 39.7088C43.657 40.1464 40.3139 41.7932 39.2223 42.3575C38.5969 42.6799 36.9822 43.5436 35.2879 45.1098C35.197 45.1904 35.1174 45.271 35.0264 45.3631C33.2639 47.0099 31.1602 48.1384 28.9429 48.7488C28.977 48.7488 30.7964 50.0961 30.7964 50.0961C30.4887 49.9777 30.2585 49.877 30.0489 49.7854C29.4839 49.5383 29.069 49.3568 27.6921 49.0712C27.2145 49.1403 26.2934 49.2439 25.8159 49.267H25.8386C26.5436 49.7737 29.2727 51.1901 29.2727 51.1901C27.9991 50.7065 23.2687 49.3821 21.5403 48.8985C16.4689 47.6778 12.0796 43.6703 11.1245 36.7838C11.085 36.4906 11.0472 36.1752 11.0072 35.8415C10.7706 33.8688 10.4575 31.2576 9.27098 28.8148C7.88371 25.9704 5.97337 22.3084 1.33398 23.0339C1.33398 23.0339 1.77746 19.1761 5.257 17.2875C8.73654 15.3989 13.5351 15.7328 16.1505 18.3815C17.7953 20.0545 19.0817 22.0952 20.1845 23.8446C20.8276 24.8647 21.4082 25.7857 21.9611 26.4771C22.3414 26.9527 22.683 27.4128 23.0237 27.8716C24.0275 29.2235 25.023 30.5643 26.9757 32.2581C27.0175 32.2945 27.0592 32.3309 27.1009 32.3672ZM6.92857 20.6495C7.30071 20.6654 7.61083 20.348 7.61083 19.9671C7.61083 19.5862 7.30071 19.2688 6.94407 19.2688C6.55642 19.2529 6.2463 19.5544 6.2463 19.9512C6.2463 20.3321 6.55642 20.6495 6.92857 20.6495Z" fill="url(#paint1_linear_2456_3311)"/>
<path d="M52.6514 18.0936C49.0582 18.6119 45.7833 19.1877 42.7927 19.8325C10.3852 26.719 11.7043 40.8029 15.8433 45.1674C27.294 57.259 50.3658 22.7115 52.9812 18.4506C53.0835 18.2664 52.8902 18.0591 52.6514 18.0936Z" fill="url(#paint2_linear_2456_3311)"/>
<path d="M45.2141 10.7005C41.8596 12.1861 38.8463 13.6371 36.1286 15.065C6.598 30.5423 11.6467 43.8086 17.446 46.5033C33.627 54.0232 44.3726 15.7099 45.6462 10.9424C45.6917 10.7466 45.4415 10.5969 45.2141 10.7005Z" fill="url(#paint3_linear_2456_3311)"/>
<path d="M12.9996 40.3539C13.1133 34.6421 18.6965 26.8804 40.9042 25.1645C41.2225 24.393 41.5864 23.3681 41.9617 22.3662C42.0299 22.1935 42.0867 22.0322 42.1436 21.8595C42.4393 21.0764 42.6894 20.3624 42.8827 19.7982C18.958 24.7845 12.8859 34.2966 12.9996 40.3539Z" fill="url(#paint4_linear_2456_3311)"/>
<path d="M56.3019 25.0376C53.7775 24.9455 50.7073 24.8994 48.4559 24.9109C42.0426 33.0526 30.6033 47.4359 21.4724 47.8044C21.0062 47.8275 20.5399 47.7699 20.0965 47.7008C20.0851 47.7008 20.0737 47.7008 20.0624 47.7008C20.051 47.7008 20.051 47.7008 20.0396 47.7008C18.3567 47.4359 16.7761 46.6644 15.3206 45.2709C14.1267 44.1309 13.5809 43.0829 14.2972 44.1078C23.9399 57.9038 53.0839 28.9875 56.5407 25.4291C56.6885 25.2679 56.5407 25.0376 56.3019 25.0376Z" fill="url(#paint5_linear_2456_3311)"/>
<path d="M48.5696 24.9111C47.5689 24.9111 46.5796 24.9342 45.6245 24.9572C19.7667 25.6251 13.0919 34.0547 12.9668 39.9624C13.0123 42.231 13.9561 44.1196 15.1387 45.2712C16.5714 46.6646 18.1406 47.4246 19.8008 47.701C19.8122 47.701 19.8122 47.701 19.8235 47.701C19.8349 47.701 19.8463 47.701 19.8577 47.701C20.3011 47.7586 20.756 47.7931 21.2108 47.8046C30.7397 47.8046 42.5998 33.2256 48.5696 24.9111Z" fill="url(#paint6_linear_2456_3311)"/>
<path d="M40.8925 25.1758C19.026 26.8225 13.0903 34.4806 12.9766 39.9506C13.022 42.2192 13.9886 44.1078 15.2053 45.2594C15.8193 45.8352 16.4447 46.3074 17.1043 46.6759C18.2527 47.2632 19.3671 47.6087 20.4587 47.7468C20.7771 47.7814 21.1069 47.7929 21.4366 47.8044C22.1757 47.8044 22.9262 47.7238 23.6767 47.5626C31.1702 45.7316 37.1628 34.5036 40.8925 25.1758Z" fill="url(#paint7_linear_2456_3311)"/>
<defs>
<linearGradient id="paint0_linear_2456_3311" x1="37.7405" y1="39.8243" x2="70.5221" y2="51.6079" gradientUnits="userSpaceOnUse">
<stop stop-color="#63C2D0"/>
<stop offset="0.5" stop-color="#006D9F"/>
<stop offset="1" stop-color="#23536D"/>
</linearGradient>
<linearGradient id="paint1_linear_2456_3311" x1="7.09601" y1="33.6475" x2="54.5455" y2="33.6475" gradientUnits="userSpaceOnUse">
<stop stop-color="#3EABB5" stop-opacity="0.95"/>
<stop offset="0.2297" stop-color="#63C2D0"/>
<stop offset="0.5054" stop-color="#63C2D0"/>
<stop offset="0.8871" stop-color="#006D9F"/>
</linearGradient>
<linearGradient id="paint2_linear_2456_3311" x1="13.7105" y1="32.905" x2="53.0102" y2="32.9058" gradientUnits="userSpaceOnUse">
<stop stop-color="#C6135D"/>
<stop offset="0.4459" stop-color="#E95178"/>
<stop offset="1" stop-color="#C6135D"/>
</linearGradient>
<linearGradient id="paint3_linear_2456_3311" x1="13.0931" y1="29.2587" x2="45.472" y2="29.5536" gradientUnits="userSpaceOnUse">
<stop stop-color="#FABC43"/>
<stop offset="1" stop-color="#F2933F"/>
</linearGradient>
<linearGradient id="paint4_linear_2456_3311" x1="12.7125" y1="30.0854" x2="45.6329" y2="30.0854" gradientUnits="userSpaceOnUse">
<stop stop-color="#E40046"/>
<stop offset="1" stop-color="#E95283"/>
</linearGradient>
<linearGradient id="paint5_linear_2456_3311" x1="13.9739" y1="36.3593" x2="56.6026" y2="36.3593" gradientUnits="userSpaceOnUse">
<stop stop-color="#23536D"/>
<stop offset="0.9919" stop-color="#3EABB5"/>
</linearGradient>
<linearGradient id="paint6_linear_2456_3311" x1="12.9824" y1="36.3594" x2="48.575" y2="36.3594" gradientUnits="userSpaceOnUse">
<stop stop-color="#006D9F"/>
<stop offset="1" stop-color="#3EABB5"/>
</linearGradient>
<linearGradient id="paint7_linear_2456_3311" x1="12.9808" y1="36.4872" x2="40.8969" y2="36.4872" gradientUnits="userSpaceOnUse">
<stop stop-color="#006D9F"/>
<stop offset="1" stop-color="#63C2D0"/>
</linearGradient>
</defs>
</svg>
